# xmcd
# 
# Track frame offsets:
#     150
#     20854
#     39387
#     58273
#     78189
#     98592
#     118924
#     135854
#     168753
#     183442
# 
# Disc length: 2598
# 
# Revision: 1
# Processed by: cddbd v1.5.2PL0 Copyright (c) Steve Scherf et al.
# Submitted via: fre:ac v1.0.17
# 
DISCID=790a240a
DTITLE=Jenny ALPHA - La sérénade du muguet
DYEAR=0
DGENRE=
TTITLE0=La sérénade du muguet
TTITLE1=Mais ça pas possible (duo avec Tony Chasseur)
TTITLE2=Asé kozé
TTITLE3=Douvan pote doudou
TTITLE4=Yaya
TTITLE5=Léchel poul
TTITLE6=Woulé
TTITLE7=Poutti
TTITLE8=La sérénade du muguet (1953)
TTITLE9=Douvan pote doudou (1953)
EXTD=
EXTT0=
EXTT1=
EXTT2=
EXTT3=
EXTT4=
EXTT5=
EXTT6=
EXTT7=
EXTT8=
EXTT9=
PLAYORDER=
